<svg width="141" height="78" viewBox="0 0 141 78" fill="none" xmlns="http://www.w3.org/2000/svg">
<path d="M94.7167 2.2265C92.7387 -0.740479 88.3796 -0.742541 86.3988 2.22257L76.1159 17.6155C74.9928 19.2966 74.9927 21.4885 76.1155 23.1698L110.776 75.0694C111.704 76.4584 113.264 77.2925 114.934 77.2925H135.418C139.412 77.2925 141.794 72.8418 139.578 69.519L94.7167 2.2265Z" fill="white"/>
<path d="M33.6607 20.3925L29.5607 26.4925L0.849421 69.5171C-1.36784 72.8397 1.01391 77.2925 5.00841 77.2925H63.4607H71.5607H94.8086C98.804 77.2925 101.186 72.838 98.9665 69.5155L54.031 2.2364C52.0481 -0.732438 47.6823 -0.726452 45.7076 2.24782L33.6607 20.3925Z" fill="white"/>
</svg>
