{
	"asset":{
		"version":"2.0",
		"generator":"Created using the official Cinema 4D glTF Exporter 1.000x284978"
	},
	"scenes":[{
		"nodes":[0]
	}],
	"nodes":[{
		"name":"Fill.1",
		"mesh":0
	}],
	"meshes":[{
		"name":"Fill.1",
		"primitives":[{
			"attributes":{
				"POSITION":1,
				"NORMAL":2,
				"TEXCOORD_0":3
			},
			"indices":0
		}]
	}],
	"accessors":[{
		"type":"SCALAR",
		"bufferView":0,
		"componentType":5123,
		"count":16872,
		"byteOffset":0,
		"min":[0],
		"max":[3355]
	},
	{
		"type":"VEC3",
		"bufferView":1,
		"componentType":5126,
		"count":3356,
		"byteOffset":0,
		"min":[0.009504115208983422,
		0.010583332739770413,
		-0.6000028252601624],
		"max":[4.968237400054932,
		2.739192247390747,
		0.10000225901603699]
	},
	{
		"type":"VEC3",
		"bufferView":1,
		"componentType":5126,
		"count":3356,
		"byteOffset":12,
		"min":[-0.9999716877937317,
		-1.0,
		-1.0],
		"max":[0.9998412728309631,
		0.9998184442520142,
		1.0]
	},
	{
		"type":"VEC2",
		"bufferView":1,
		"componentType":5126,
		"count":3356,
		"byteOffset":24,
		"min":[0.0,
		0.0],
		"max":[1.0,
		1.0]
	}],
	"bufferViews":[{
		"buffer":0,
		"byteOffset":0,
		"target":34963,
		"byteLength":33744
	},
	{
		"buffer":0,
		"byteOffset":33744,
		"target":34962,
		"byteLength":107392,
		"byteStride":32
	}],
	"buffers":[{
		"uri":"data:application/octet-stream;base64,",
		"byteLength":141136
	}]
}